<svg width="15" height="12" xmlns="http://www.w3.org/2000/svg"><g fill="none"><path d="M1.44 3.699c.19.136.761.541 1.716 1.214.954.674 1.685 1.192 2.193 1.556.056.04.174.126.355.26.182.133.332.241.452.324.12.082.265.174.436.277.17.102.33.178.481.23.15.05.29.076.419.076h.016c.129 0 .268-.025.419-.077.15-.05.311-.127.481-.23.17-.102.316-.194.436-.276.12-.083.27-.19.452-.324.18-.134.3-.22.355-.26l3.918-2.77c.407-.29.747-.64 1.02-1.049.274-.409.411-.837.411-1.286 0-.375-.133-.696-.398-.963A1.282 1.282 0 0 0 13.661 0H1.339C.91 0 .58.148.347.443.116.74 0 1.108 0 1.551c0 .358.154.746.46 1.163.307.418.634.746.98.985z" fill="#79BE4F"/><path d="M14.163 4.611a174.082 174.082 0 0 0-4.169 2.94c-.318.239-.576.425-.774.559-.198.133-.462.27-.79.409-.33.14-.637.209-.921.209h-.017c-.285 0-.592-.07-.921-.21a4.749 4.749 0 0 1-.791-.408c-.198-.134-.456-.32-.774-.559-.754-.562-2.14-1.542-4.16-2.94A4.457 4.457 0 0 1 0 3.87v6.767c0 .375.131.696.393.963.263.267.578.4.946.4h12.322c.368 0 .683-.133.946-.4.262-.267.393-.588.393-.963V3.87a4.64 4.64 0 0 1-.837.741z" fill="#79BE4F"/></g></svg>