<svg width="16" height="10" xmlns="http://www.w3.org/2000/svg"><g fill="none"><path d="M5.614 6.032h2.5a3.177 3.177 0 0 1-3.02 2.07C3.408 8.09 2.012 6.771 1.946 5.123c-.07-1.766 1.38-3.225 3.174-3.225.82 0 1.568.305 2.132.805a.35.35 0 0 0 .468-.002l.918-.844a.33.33 0 0 0 .001-.487A5.163 5.163 0 0 0 5.221 0C2.399-.052.02 2.208 0 4.965-.02 7.742 2.28 10 5.118 10c2.73 0 4.96-2.088 5.11-4.719.004-.033.007-1.147.007-1.147H5.614a.34.34 0 0 0-.343.335v1.227a.34.34 0 0 0 .343.336zM14.471 4.245v-1.2a.297.297 0 0 0-.3-.293h-1.034c-.166 0-.3.131-.3.294v1.2h-1.229c-.166 0-.3.13-.3.293v1.01c0 .162.134.293.3.293h1.229v1.2c0 .162.134.293.3.293h1.034c.166 0 .3-.131.3-.293v-1.2H15.7c.166 0 .3-.131.3-.294v-1.01a.297.297 0 0 0-.3-.293H14.47z" fill="#5FAB30"/></g></svg>