<svg width="339" height="57" xmlns="http://www.w3.org/2000/svg"><g fill="none"><g fill="#000"><path d="M103.154 13.034L100.28 7.41h-2.603l4.237 7.965c-.424.653-.908.851-1.332.851-.408 0-.832-.091-1.256-.35l-.908 1.718c.666.38 1.377.623 2.285.623 1.483 0 2.542-.73 3.465-2.584l4.07-8.223h-2.527l-2.557 5.624zM115.93 18.05h2.33V7.41h-2.33V12c-.484.38-1.377.684-2.315.684-1.195 0-1.71-.744-1.71-2.067V7.41h-2.33v3.891c0 2.463 1.453 3.572 3.556 3.572 1.075 0 2.088-.44 2.8-.79v3.967zM120.796 18.05h8.064v-2.082h-5.75v-2.235h4.994v-2.082h-4.993V9.492h5.674V7.41h-7.99v10.64zM133.262 9.523h5.795V7.41h-8.125v10.64h4.902c2.452 0 3.95-1.2 3.95-3.374 0-1.992-1.332-3.299-3.723-3.299h-2.799V9.523zm2.557 3.8c1.105 0 1.634.44 1.634 1.261 0 .928-.53 1.353-1.619 1.353h-2.572v-2.614h2.557zM141.704 18.05h2.33v-4.271h4.297v4.271h2.33V7.41h-2.33v4.21h-4.297V7.41h-2.33v10.64zM153.2 18.05h4.433c2.482 0 4.025-1.383 4.025-3.572 0-2.082-1.422-3.45-3.874-3.45h-2.254V7.41h-2.33v10.64zm4.388-5.016c1.165 0 1.755.517 1.755 1.414 0 .988-.59 1.49-1.74 1.49h-2.073v-2.904h2.058zm5.25 5.016h2.33V7.41h-2.33v10.64zM176.834 7.41h-2.164l-4.66 6.977V7.41h-2.3v10.64h2.194l4.63-6.977v6.977h2.3V7.41zm-4.524-.806c1.392 0 2.33-.85 2.542-2.31l-1.347-.243c-.197.623-.56 1.018-1.195 1.018-.636 0-.999-.395-1.196-1.018l-1.346.243c.212 1.46 1.15 2.31 2.542 2.31zM191.772 20.27h1.937l.303-4.333h-1.256V7.41h-2.33v8.527h-4.176V7.41h-2.33v10.64h7.852v2.22zM195.652 18.05h8.065v-2.082h-5.75v-2.235h4.993v-2.082h-4.993V9.492h5.674V7.41h-7.99v10.64zM205.788 18.05h2.33v-4.271h4.298v4.271h2.33V7.41h-2.33v4.21h-4.298V7.41h-2.33v10.64zM219.75 18.05h2.331V9.568h3.222V7.41h-8.775v2.158h3.222v8.482zM227.096 18.05h2.33v-3.192h1.77c2.376 0 4.282-1.277 4.282-3.74 0-2.203-1.528-3.708-4.055-3.708h-4.327v10.64zm2.33-5.274V9.523h1.8c1.165 0 1.892.562 1.892 1.611 0 .942-.681 1.642-1.846 1.642h-1.846zM244.205 18.05h2.33V9.568h3.223V7.41h-8.776v2.158h3.223v8.482zM251.55 18.05h8.065v-2.082h-5.75v-2.235h4.993v-2.082h-4.993V9.492h5.674V7.41h-7.989v10.64zM260.885 18.05h2.648l2.39-3.648 2.376 3.648h2.723l-3.692-5.442 3.541-5.198h-2.648l-2.239 3.45-2.224-3.45h-2.724l3.541 5.229-3.692 5.411zM272.769 18.05h2.33v-4.271h4.297v4.271h2.33V7.41h-2.33v4.21h-4.297V7.41h-2.33v10.64zM283.357 18.05h2.375l.969-2.386h4.478l.969 2.386h2.436l-4.539-10.716h-2.149l-4.539 10.716zm4.176-4.454l1.407-3.45 1.407 3.45h-2.814zM295.099 20.27h2.103l.151-2.22h6.628v2.22h1.952l.302-4.333h-1.271V7.41h-7.701v1.246c0 3.633-.379 5.442-1.165 7.281h-.999v4.332zm7.535-10.747v6.414h-4.085c.605-1.474.953-3.085.953-5.335v-1.08h3.132zM311.63 7.228c-2.013 0-3.284.714-4.267 1.748l1.225 1.49c.712-.73 1.559-1.171 2.86-1.171 1.014 0 1.71.44 1.71 1.185 0 .806-.666 1.232-1.891 1.232h-1.196v1.945h1.226c1.21 0 2.103.365 2.103 1.247 0 .82-.802 1.276-1.785 1.276-1.377 0-2.512-.501-3.375-1.352L307 16.454c1.135 1.155 2.481 1.778 4.705 1.778 2.467 0 4.025-1.352 4.025-3.192 0-1.352-.847-2.143-1.982-2.508.938-.41 1.71-1.124 1.71-2.447 0-1.657-1.559-2.857-3.828-2.857zM322.907 18.232c3.268 0 5.644-2.477 5.644-5.502 0-3.055-2.346-5.502-5.614-5.502s-5.644 2.477-5.644 5.502c0 3.055 2.345 5.502 5.614 5.502zm.03-2.158c-1.876 0-3.208-1.52-3.208-3.344 0-1.854 1.301-3.344 3.178-3.344 1.876 0 3.207 1.52 3.207 3.344 0 1.854-1.301 3.344-3.177 3.344zM330.618 18.05h2.33v-3.192h1.77c2.376 0 4.282-1.277 4.282-3.74 0-2.203-1.528-3.708-4.055-3.708h-4.327v10.64zm2.33-5.274V9.523h1.8c1.165 0 1.892.562 1.892 1.611 0 .942-.681 1.642-1.846 1.642h-1.846z"/></g><g fill="#000"><path d="M101.776 36.445c2.05 0 3.446-1.621 3.446-3.473 0-1.871-1.377-3.474-3.426-3.474-2.05 0-3.446 1.622-3.446 3.474 0 1.87 1.376 3.473 3.426 3.473zm.02-.7c-1.54 0-2.657-1.248-2.657-2.773 0-1.545 1.098-2.774 2.637-2.774 1.54 0 2.656 1.248 2.656 2.774 0 1.545-1.097 2.773-2.636 2.773zM109.038 36.445c1.473 0 2.55-1.17 2.55-2.552 0-1.363-1.087-2.466-2.386-2.466-1.059 0-1.713.49-2.06 1.075.078-.95.424-1.507 1.454-1.766l2.694-.662-.144-.624-2.772.653c-1.732.412-1.857 1.948-1.857 3.55 0 1.727 1.01 2.792 2.521 2.792zm.02-.662c-1.001 0-1.78-.835-1.78-1.87 0-1.037.73-1.872 1.76-1.872 1.001 0 1.78.835 1.78 1.871s-.73 1.871-1.76 1.871zM112.93 37.866h.742V35.38c.385.557.981 1.056 1.905 1.056 1.203 0 2.377-.96 2.377-2.581 0-1.651-1.183-2.591-2.377-2.591-.914 0-1.501.508-1.905 1.103v-.998h-.741v6.497zm2.512-2.092c-.923 0-1.8-.768-1.8-1.92 0-1.151.877-1.928 1.8-1.928.944 0 1.752.748 1.752 1.919 0 1.219-.79 1.929-1.752 1.929zM120.803 36.436c.876 0 1.444-.403 1.79-.845v.74h.732v-3.033c0-.633-.173-1.113-.52-1.459-.356-.355-.904-.547-1.607-.547-.731 0-1.26.173-1.81.423l.222.604c.462-.21.924-.355 1.511-.355.934 0 1.473.46 1.473 1.344v.153a5.227 5.227 0 0 0-1.521-.211c-1.26 0-2.127.557-2.127 1.622 0 1.036.924 1.564 1.858 1.564zm.145-.595c-.674 0-1.251-.365-1.251-.988 0-.615.53-1.018 1.453-1.018.606 0 1.087.106 1.453.211v.461c0 .787-.74 1.334-1.655 1.334zM126.473 36.445c1.232 0 1.973-.7 1.973-1.497 0-.652-.376-1.026-.924-1.218.423-.173.799-.528.799-1.142 0-.768-.684-1.324-1.8-1.324-.731 0-1.405.22-1.925.623l.366.519c.433-.346 1.02-.5 1.51-.5.617 0 1.079.279 1.079.74 0 .518-.453.853-1.107.853h-.674v.605h.664c.809 0 1.251.317 1.251.816 0 .575-.587.883-1.231.883-.597 0-1.165-.221-1.665-.643l-.376.547c.607.489 1.27.738 2.06.738zM132.09 36.445a2.58 2.58 0 0 0 2.608-2.59c0-1.42-1.097-2.591-2.588-2.591a2.571 2.571 0 0 0-2.599 2.59c0 1.42 1.088 2.591 2.58 2.591zm.02-.662c-1.05 0-1.839-.863-1.839-1.928 0-1.066.742-1.939 1.82-1.939 1.048 0 1.847.873 1.847 1.939 0 1.065-.75 1.928-1.828 1.928zM136.04 36.33h2.493c1.097 0 1.81-.518 1.81-1.353 0-.7-.501-1.065-1.098-1.228.414-.173.828-.49.828-1.142 0-.748-.635-1.238-1.626-1.238h-2.406v4.961zm.742-.633v-1.603h1.559c.808 0 1.241.288 1.241.768 0 .518-.433.835-1.145.835h-1.655zm0-2.198v-1.496h1.55c.644 0 .99.287.99.7 0 .518-.414.796-1.01.796h-1.53zM143.161 36.436c.876 0 1.444-.403 1.79-.845v.74h.732v-3.033c0-.633-.173-1.113-.52-1.459-.356-.355-.904-.547-1.607-.547-.731 0-1.26.173-1.81.423l.222.604c.462-.21.924-.355 1.511-.355.934 0 1.472.46 1.472 1.344v.153a5.226 5.226 0 0 0-1.52-.211c-1.26 0-2.127.557-2.127 1.622 0 1.036.924 1.564 1.857 1.564zm.145-.595c-.674 0-1.251-.365-1.251-.988 0-.615.53-1.018 1.453-1.018a5.13 5.13 0 0 1 1.453.211v.461c0 .787-.74 1.334-1.655 1.334zM148.456 36.33h.75v-4.308h1.78v-.653h-4.31v.653h1.78v4.308zM154.24 36.445c.942 0 1.549-.374 2.05-.93l-.463-.413c-.404.422-.885.7-1.568.7-.876 0-1.646-.604-1.752-1.65h3.946c.01-.115.01-.192.01-.26 0-1.458-.847-2.628-2.32-2.628-1.376 0-2.387 1.151-2.387 2.59 0 1.546 1.117 2.591 2.483 2.591zm-1.733-2.888c.106-.96.76-1.67 1.617-1.67.982 0 1.501.768 1.588 1.67h-3.205zM157.519 36.407c.943 0 1.646-.403 1.646-4.27v-.115h2.078v4.308h.741v-4.96h-3.522v.412c0 3.723-.5 3.982-1.097 3.982-.087 0-.26-.038-.356-.067l-.087.633c.154.039.433.077.597.077zM163.643 36.33h2.156c1.135 0 1.876-.623 1.876-1.612 0-1.046-.885-1.487-1.963-1.487h-1.328v-1.862h-.741v4.961zm.74-.652v-1.814h1.32c.76 0 1.222.298 1.222.873 0 .624-.453.94-1.194.94h-1.347zM168.821 36.33h.741v-2.168h2.868v2.168h.741v-4.96h-.741v2.14h-2.868v-2.14h-.74v4.96zM177.098 36.445a2.58 2.58 0 0 0 2.608-2.59c0-1.42-1.097-2.591-2.589-2.591a2.571 2.571 0 0 0-2.598 2.59c0 1.42 1.087 2.591 2.579 2.591zm.019-.662c-1.049 0-1.838-.863-1.838-1.928 0-1.066.74-1.939 1.819-1.939 1.049 0 1.848.873 1.848 1.939 0 1.065-.751 1.928-1.829 1.928zM183.223 36.445c.943 0 1.55-.374 2.05-.93l-.462-.413c-.404.422-.886.7-1.569.7-.875 0-1.645-.604-1.751-1.65h3.945c.01-.115.01-.192.01-.26 0-1.458-.847-2.628-2.32-2.628-1.375 0-2.386 1.151-2.386 2.59 0 1.546 1.116 2.591 2.483 2.591zm-1.732-2.888c.106-.96.76-1.67 1.616-1.67.982 0 1.502.768 1.588 1.67h-3.204zM190.398 37.894c.751 0 1.232-.374 1.656-1.4l2.088-5.125h-.79l-1.597 4.136-1.809-4.136h-.818l2.262 4.942c-.299.7-.578.93-1.02.93a1.56 1.56 0 0 1-.78-.181l-.25.585c.337.163.645.25 1.058.25zM198.471 36.33h.741v-4.96h-.74v2.254c-.405.279-1.04.47-1.57.47-.635 0-1-.364-1-.95V31.37h-.742v1.881c0 .979.664 1.487 1.646 1.487.587 0 1.309-.25 1.665-.45v2.043zM200.868 37.866h.741V35.38c.385.557.982 1.056 1.906 1.056 1.203 0 2.377-.96 2.377-2.581 0-1.651-1.184-2.591-2.377-2.591-.914 0-1.5.508-1.906 1.103v-.998h-.74v6.497zm2.512-2.092c-.924 0-1.8-.768-1.8-1.92 0-1.151.876-1.928 1.8-1.928.943 0 1.752.748 1.752 1.919 0 1.219-.79 1.929-1.752 1.929zM209.434 36.445c.943 0 1.55-.374 2.05-.93l-.462-.413c-.404.422-.886.7-1.569.7-.876 0-1.645-.604-1.75-1.65h3.944c.01-.115.01-.192.01-.26 0-1.458-.847-2.628-2.319-2.628-1.376 0-2.387 1.151-2.387 2.59 0 1.546 1.116 2.591 2.483 2.591zm-1.732-2.888c.106-.96.76-1.67 1.616-1.67.982 0 1.502.768 1.588 1.67h-3.204zM212.32 36.33h.865l1.655-2.312 1.011 1.103v1.21h.741v-1.21l1.01-1.103 1.656 2.312h.866l-2.04-2.84 1.934-2.12h-.895l-2.53 2.878v-2.879h-.742v2.879l-2.53-2.879h-.896l1.934 2.12-2.04 2.841zM220.41 37.568h.605l.135-1.238h4.022v1.238h.616l.116-1.89h-.75v-4.309h-3.542v.864c0 1.67-.26 2.706-.664 3.445h-.539v1.89zm1.327-1.89c.346-.643.587-1.737.587-2.965v-.691h2.088v3.656h-2.675zM229.095 36.445c.943 0 1.55-.374 2.05-.93l-.462-.413c-.405.422-.886.7-1.569.7-.876 0-1.646-.604-1.752-1.65h3.946c.01-.115.01-.192.01-.26 0-1.458-.847-2.628-2.319-2.628-1.377 0-2.387 1.151-2.387 2.59 0 1.546 1.116 2.591 2.483 2.591zm-1.733-2.888c.106-.96.761-1.67 1.617-1.67.982 0 1.502.768 1.588 1.67h-3.205zM232.615 36.33h.741v-2.168h2.868v2.168h.741v-4.96h-.74v2.14h-2.869v-2.14h-.74v4.96zM238.62 36.33h.713l2.964-3.924v3.924h.741v-4.96h-.722l-2.955 3.924v-3.925h-.74v4.961zM246.867 36.445c.943 0 1.55-.374 2.05-.93l-.463-.413c-.404.422-.885.7-1.568.7-.876 0-1.646-.604-1.752-1.65h3.946c.01-.115.01-.192.01-.26 0-1.458-.847-2.628-2.32-2.628-1.376 0-2.386 1.151-2.386 2.59 0 1.546 1.116 2.591 2.483 2.591zm-1.733-2.888c.106-.96.761-1.67 1.617-1.67.982 0 1.501.768 1.588 1.67h-3.205zM252.541 37.568h.606l.135-1.238h4.022v1.238h.616l.116-1.89h-.75v-4.309h-3.542v.864c0 1.67-.26 2.706-.664 3.445h-.539v1.89zm1.328-1.89c.346-.643.587-1.737.587-2.965v-.691h2.088v3.656h-2.675zM261.323 36.445a2.58 2.58 0 0 0 2.608-2.59c0-1.42-1.097-2.591-2.589-2.591a2.571 2.571 0 0 0-2.598 2.59c0 1.42 1.087 2.591 2.58 2.591zm.02-.662c-1.05 0-1.839-.863-1.839-1.928 0-1.066.741-1.939 1.82-1.939 1.048 0 1.847.873 1.847 1.939 0 1.065-.75 1.928-1.829 1.928zM265.273 36.33h.741v-4.308h2.83v4.308h.741v-4.96h-4.312v4.96zM273.512 36.445a2.58 2.58 0 0 0 2.608-2.59c0-1.42-1.097-2.591-2.588-2.591a2.572 2.572 0 0 0-2.599 2.59c0 1.42 1.088 2.591 2.58 2.591zm.02-.662c-1.049 0-1.839-.863-1.839-1.928 0-1.066.741-1.939 1.82-1.939 1.048 0 1.847.873 1.847 1.939 0 1.065-.75 1.928-1.828 1.928zM277.222 36.407c.943 0 1.646-.403 1.646-4.27v-.115h2.078v4.308h.741v-4.96h-3.522v.412c0 3.723-.5 3.982-1.097 3.982-.087 0-.26-.038-.356-.067l-.087.633c.154.039.433.077.597.077zM283.346 36.33h.741v-2.168h2.868v2.168h.741v-4.96h-.74v2.14h-2.869v-2.14h-.74v4.96zM289.351 36.33h.712l2.964-3.924v3.924h.741v-4.96h-.72l-2.956 3.924v-3.925h-.74v4.961zM296.625 36.33h.751v-4.308h1.78v-.653h-4.31v.653h1.78v4.308zM302.41 36.445c.942 0 1.55-.374 2.05-.93l-.463-.413c-.404.422-.885.7-1.569.7-.875 0-1.645-.604-1.75-1.65h3.945c.01-.115.01-.192.01-.26 0-1.458-.848-2.628-2.32-2.628-1.376 0-2.387 1.151-2.387 2.59 0 1.546 1.117 2.591 2.483 2.591zm-1.733-2.888c.106-.96.76-1.67 1.617-1.67.981 0 1.501.768 1.588 1.67h-3.205zM305.69 36.407c.942 0 1.645-.403 1.645-4.27v-.115h2.078v4.308h.741v-4.96h-3.522v.412c0 3.723-.5 3.982-1.097 3.982-.087 0-.26-.038-.356-.067l-.087.633c.154.039.433.077.597.077zM311.813 36.33h2.155c1.136 0 1.877-.623 1.877-1.612 0-1.046-.885-1.487-1.963-1.487h-1.328v-1.862h-.74v4.961zm.741-.652v-1.814h1.318c.76 0 1.222.298 1.222.873 0 .624-.452.94-1.193.94h-1.347zM316.991 36.33h.741v-2.168h2.868v2.168h.741v-4.96h-.74v2.14h-2.869v-2.14h-.74v4.96zM325.268 36.445a2.58 2.58 0 0 0 2.608-2.59c0-1.42-1.098-2.591-2.589-2.591a2.572 2.572 0 0 0-2.599 2.59c0 1.42 1.088 2.591 2.58 2.591zm.02-.662c-1.05 0-1.839-.863-1.839-1.928 0-1.066.741-1.939 1.82-1.939 1.048 0 1.846.873 1.846 1.939 0 1.065-.75 1.928-1.828 1.928zM329.218 36.33h.741v-4.308h2.637v-.653h-3.378v4.961zM335.944 36.445a2.58 2.58 0 0 0 2.608-2.59c0-1.42-1.097-2.591-2.589-2.591a2.571 2.571 0 0 0-2.598 2.59c0 1.42 1.087 2.591 2.58 2.591zm.02-.662c-1.05 0-1.839-.863-1.839-1.928 0-1.066.741-1.939 1.82-1.939 1.048 0 1.847.873 1.847 1.939 0 1.065-.75 1.928-1.829 1.928zM98.524 49.765h.74v-4.309h2.83v4.309h.74v-4.961h-4.31v4.96zM104.491 51.3h.741v-2.485c.385.556.982 1.055 1.906 1.055 1.203 0 2.377-.96 2.377-2.581 0-1.65-1.184-2.591-2.377-2.591-.914 0-1.501.509-1.906 1.104v-.998h-.74V51.3zm2.512-2.092c-.924 0-1.8-.768-1.8-1.92 0-1.15.876-1.928 1.8-1.928.943 0 1.752.749 1.752 1.92 0 1.218-.79 1.928-1.752 1.928zM113.153 49.88a2.58 2.58 0 0 0 2.608-2.591c0-1.42-1.097-2.591-2.589-2.591a2.571 2.571 0 0 0-2.598 2.59c0 1.421 1.088 2.592 2.58 2.592zm.02-.662c-1.05 0-1.839-.864-1.839-1.93 0-1.064.741-1.937 1.82-1.937 1.048 0 1.847.873 1.847 1.938s-.75 1.929-1.829 1.929zM120.097 51.3h.75v-1.938c.318.268.635.508 1.242.508 1.193 0 2.03-.969 2.03-2.581 0-1.631-.837-2.591-2.03-2.591-.568 0-.924.25-1.242.537v-2.188h-.75v2.188c-.318-.287-.674-.537-1.242-.537-1.193 0-2.02.96-2.02 2.572 0 1.631.827 2.6 2.02 2.6.558 0 .924-.24 1.242-.508V51.3zm-1.088-2.082c-.972 0-1.405-.72-1.405-1.91s.462-1.948 1.405-1.948c.443 0 .79.173 1.088.49v2.878c-.299.317-.645.49-1.088.49zm2.935 0c-.443 0-.789-.173-1.097-.49V45.85c.308-.316.655-.489 1.097-.489.943 0 1.405.758 1.405 1.929 0 1.209-.433 1.929-1.405 1.929zM127.68 49.88c.943 0 1.55-.374 2.05-.931l-.462-.413c-.404.423-.885.7-1.568.7-.876 0-1.646-.604-1.752-1.65h3.946c.01-.115.01-.192.01-.259 0-1.458-.847-2.629-2.32-2.629-1.376 0-2.386 1.152-2.386 2.59 0 1.546 1.116 2.592 2.482 2.592zm-1.732-2.889c.106-.96.76-1.67 1.617-1.67.982 0 1.501.768 1.588 1.67h-3.205zM133.443 49.88c.933 0 1.53-.403 2.03-.96l-.49-.45c-.395.421-.866.748-1.502.748-1.039 0-1.828-.854-1.828-1.93 0-1.083.77-1.937 1.78-1.937.674 0 1.136.316 1.53.729l.472-.5c-.462-.489-1.049-.882-1.992-.882-1.453 0-2.55 1.19-2.55 2.59 0 1.411 1.097 2.592 2.55 2.592zM138.94 49.88c.934 0 1.531-.403 2.031-.96l-.49-.45c-.395.421-.867.748-1.502.748-1.039 0-1.828-.854-1.828-1.93 0-1.083.77-1.937 1.78-1.937.674 0 1.136.316 1.53.729l.472-.5c-.462-.489-1.05-.882-1.992-.882-1.453 0-2.55 1.19-2.55 2.59 0 1.411 1.097 2.592 2.55 2.592zM142.196 49.765h.713l2.964-3.925v3.925h.74v-4.961h-.721l-2.955 3.924v-3.924h-.74v4.96zM150.539 49.88a2.58 2.58 0 0 0 2.608-2.591c0-1.42-1.097-2.591-2.589-2.591a2.571 2.571 0 0 0-2.598 2.59c0 1.421 1.087 2.592 2.579 2.592zm.019-.662c-1.049 0-1.838-.864-1.838-1.93 0-1.064.74-1.937 1.819-1.937 1.049 0 1.848.873 1.848 1.938s-.751 1.929-1.829 1.929zM154.49 49.765h.74v-2.169h2.868v2.169h.741v-4.961h-.741v2.14h-2.868v-2.14h-.74v4.96zM161.976 49.87c.876 0 1.444-.403 1.79-.844v.739h.732v-3.033c0-.633-.173-1.113-.52-1.458-.356-.355-.904-.547-1.607-.547-.731 0-1.26.173-1.81.422l.222.604c.462-.21.924-.354 1.511-.354.934 0 1.473.46 1.473 1.343v.154a5.225 5.225 0 0 0-1.521-.212c-1.26 0-2.127.557-2.127 1.622 0 1.036.924 1.564 1.858 1.564zm.145-.595c-.674 0-1.251-.364-1.251-.988 0-.614.53-1.017 1.453-1.017a5.13 5.13 0 0 1 1.453.21v.461c0 .787-.74 1.334-1.655 1.334zM165.827 49.841c.943 0 1.646-.403 1.646-4.27v-.115h2.078v4.309h.741v-4.961h-3.522v.412c0 3.723-.5 3.982-1.097 3.982-.087 0-.26-.038-.356-.067l-.087.634c.154.038.433.076.597.076zM171.95 49.765h2.156c1.136 0 1.877-.624 1.877-1.612 0-1.046-.885-1.488-1.963-1.488h-1.328v-1.861h-.741v4.96zm.742-.653v-1.814h1.318c.76 0 1.222.298 1.222.874 0 .624-.452.94-1.193.94h-1.347zM177.13 49.765h.74v-2.169h2.868v2.169h.74v-4.961h-.74v2.14h-2.868v-2.14h-.74v4.96zM185.406 49.88a2.58 2.58 0 0 0 2.608-2.591c0-1.42-1.098-2.591-2.59-2.591a2.571 2.571 0 0 0-2.598 2.59c0 1.421 1.088 2.592 2.58 2.592zm.019-.662c-1.05 0-1.838-.864-1.838-1.93 0-1.064.74-1.937 1.819-1.937 1.049 0 1.847.873 1.847 1.938s-.75 1.929-1.828 1.929zM189.356 49.765h.741v-4.309h2.637v-.652h-3.378v4.96zM196.082 49.88a2.58 2.58 0 0 0 2.608-2.591c0-1.42-1.097-2.591-2.589-2.591a2.571 2.571 0 0 0-2.598 2.59c0 1.421 1.087 2.592 2.579 2.592zm.02-.662c-1.05 0-1.839-.864-1.839-1.93 0-1.064.741-1.937 1.819-1.937 1.049 0 1.848.873 1.848 1.938s-.751 1.929-1.829 1.929zM205.188 49.88a2.58 2.58 0 0 0 2.608-2.591c0-1.42-1.097-2.591-2.588-2.591a2.572 2.572 0 0 0-2.599 2.59c0 1.421 1.088 2.592 2.58 2.592zm.02-.662c-1.049 0-1.839-.864-1.839-1.93 0-1.064.741-1.937 1.82-1.937 1.048 0 1.847.873 1.847 1.938s-.75 1.929-1.828 1.929zM211.477 49.88c1.473 0 2.55-1.17 2.55-2.553 0-1.362-1.087-2.466-2.386-2.466-1.059 0-1.713.49-2.06 1.075.077-.95.424-1.507 1.453-1.766l2.695-.662-.144-.624-2.772.653c-1.732.413-1.857 1.948-1.857 3.55 0 1.728 1.01 2.793 2.521 2.793zm.02-.662c-1 0-1.78-.835-1.78-1.871 0-1.037.73-1.872 1.76-1.872 1.001 0 1.781.835 1.781 1.872 0 1.036-.732 1.87-1.762 1.87zM215.37 51.3h.741v-2.485c.385.556.981 1.055 1.905 1.055 1.203 0 2.377-.96 2.377-2.581 0-1.65-1.184-2.591-2.377-2.591-.914 0-1.5.509-1.905 1.104v-.998h-.74V51.3zm2.511-2.092c-.924 0-1.799-.768-1.799-1.92 0-1.15.875-1.928 1.8-1.928.942 0 1.751.749 1.751 1.92 0 1.218-.789 1.928-1.752 1.928zM223.242 49.87c.876 0 1.444-.403 1.79-.844v.739h.732v-3.033c0-.633-.174-1.113-.52-1.458-.356-.355-.905-.547-1.607-.547-.732 0-1.26.173-1.809.422l.221.604c.462-.21.924-.354 1.511-.354.933 0 1.472.46 1.472 1.343v.154a5.218 5.218 0 0 0-1.52-.212c-1.26 0-2.127.557-2.127 1.622 0 1.036.924 1.564 1.857 1.564zm.145-.595c-.674 0-1.25-.364-1.25-.988 0-.614.528-1.017 1.452-1.017.606 0 1.087.105 1.453.21v.461c0 .787-.74 1.334-1.655 1.334zM228.912 49.88c1.231 0 1.972-.7 1.972-1.497 0-.653-.375-1.027-.923-1.219.423-.173.798-.528.798-1.142 0-.767-.683-1.324-1.799-1.324-.732 0-1.405.22-1.925.624l.366.518c.433-.346 1.02-.5 1.511-.5.616 0 1.077.28 1.077.74 0 .518-.452.854-1.106.854h-.674v.604h.664c.808 0 1.251.317 1.251.816 0 .576-.587.883-1.232.883-.596 0-1.164-.22-1.665-.643l-.375.547c.606.49 1.27.739 2.06.739zM234.53 49.88a2.58 2.58 0 0 0 2.607-2.591c0-1.42-1.097-2.591-2.589-2.591a2.571 2.571 0 0 0-2.598 2.59c0 1.421 1.087 2.592 2.58 2.592zm.018-.662c-1.049 0-1.838-.864-1.838-1.93 0-1.064.741-1.937 1.82-1.937 1.048 0 1.847.873 1.847 1.938s-.75 1.929-1.829 1.929zM238.48 49.765h2.492c1.097 0 1.81-.518 1.81-1.353 0-.7-.5-1.065-1.098-1.229.414-.172.828-.49.828-1.142 0-.748-.635-1.237-1.627-1.237h-2.406v4.96zm.74-.634V47.53h1.56c.808 0 1.241.288 1.241.767 0 .519-.433.835-1.145.835h-1.656zm0-2.197v-1.497h1.55c.645 0 .991.288.991.7 0 .519-.414.797-1.01.797h-1.53zM245.6 49.87c.876 0 1.444-.403 1.79-.844v.739h.732v-3.033c0-.633-.174-1.113-.52-1.458-.356-.355-.905-.547-1.607-.547-.73 0-1.26.173-1.809.422l.221.604c.462-.21.924-.354 1.511-.354.933 0 1.472.46 1.472 1.343v.154a5.218 5.218 0 0 0-1.52-.212c-1.26 0-2.127.557-2.127 1.622 0 1.036.924 1.564 1.857 1.564zm.145-.595c-.674 0-1.25-.364-1.25-.988 0-.614.528-1.017 1.452-1.017.606 0 1.087.105 1.453.21v.461c0 .787-.74 1.334-1.655 1.334zM249.691 49.765h.741v-2.169h2.868v2.169h.741v-4.961h-.74v2.14h-2.869v-2.14h-.74v4.96zM255.697 49.765h.712l2.964-3.925v3.925h.741v-4.961h-.722l-2.954 3.924v-3.924h-.74v4.96zM261.325 49.765h.914c.462-.595.915-1.2 1.377-1.804h1.376v1.804h.741v-4.961h-2.339c-1.183 0-1.876.633-1.876 1.544 0 .807.587 1.325 1.328 1.498l-1.52 1.919zm2.127-2.428c-.693 0-1.193-.355-1.193-.96 0-.566.433-.92 1.174-.92h1.56v1.88h-1.54zM272.544 49.88a2.58 2.58 0 0 0 2.608-2.591c0-1.42-1.097-2.591-2.588-2.591a2.572 2.572 0 0 0-2.599 2.59c0 1.421 1.088 2.592 2.58 2.592zm.02-.662c-1.049 0-1.839-.864-1.839-1.93 0-1.064.741-1.937 1.82-1.937 1.048 0 1.847.873 1.847 1.938s-.75 1.929-1.828 1.929zM278.766 49.88a2.58 2.58 0 0 0 2.608-2.591c0-1.42-1.097-2.591-2.589-2.591a2.571 2.571 0 0 0-2.598 2.59c0 1.421 1.087 2.592 2.58 2.592zm.02-.662c-1.05 0-1.839-.864-1.839-1.93 0-1.064.741-1.937 1.82-1.937 1.048 0 1.847.873 1.847 1.938s-.75 1.929-1.829 1.929zM284.987 49.88a2.58 2.58 0 0 0 2.608-2.591c0-1.42-1.097-2.591-2.588-2.591a2.572 2.572 0 0 0-2.599 2.59c0 1.421 1.088 2.592 2.58 2.592zm.02-.662c-1.049 0-1.838-.864-1.838-1.93 0-1.064.741-1.937 1.818-1.937 1.05 0 1.848.873 1.848 1.938s-.75 1.929-1.828 1.929zM293.016 49.371l.568-.326-1.299-1.775 1.3-1.756-.569-.317-1.559 2.044v.077l1.56 2.053zm2.146 0l.56-.326-1.3-1.775 1.3-1.756-.56-.317-1.559 2.044v.077l1.56 2.053zM298.23 49.88c.8 0 1.511-.422 2.06-1.526l2.666-5.306h-.828l-2.146 4.385-2.483-4.386h-.866l2.964 5.144c-.395.748-.885 1.007-1.347 1.007-.356 0-.587-.057-.857-.201l-.298.604a2.34 2.34 0 0 0 1.135.279zM309.745 51.262h.635l.116-2.188h-.876v-6.026h-.76v6.026h-3.85v-6.026h-.76v6.717h5.495v1.497zM313.39 49.765h.77v-6.027h2.261v-.69h-5.293v.69h2.261v6.027zM317.85 49.765h.76v-3.023h3.887v3.023h.761v-6.717h-.76v2.984h-3.889v-2.984h-.76v6.717zM325.334 49.371l1.56-2.053v-.077l-1.56-2.044-.558.326 1.3 1.766-1.3 1.765.558.317zm2.146 0l1.56-2.053v-.077l-1.56-2.044-.568.326 1.3 1.766-1.3 1.765.568.317z"/></g><path d="M11.284 0h-.007c-.697 0-1.354.275-1.849.775a2.674 2.674 0 0 0-.777 1.895v40.034c0 1.468 1.186 2.665 2.643 2.669 6.144.015 16.437 1.31 23.539 8.826V12.303a2.58 2.58 0 0 0-.363-1.352C28.64 1.457 17.44.015 11.284 0zM65.112 42.704V2.67c0-.717-.276-1.39-.777-1.895A2.587 2.587 0 0 0 62.485 0h-.005c-6.158.015-17.358 1.457-23.187 10.95a2.58 2.58 0 0 0-.362 1.353v41.896c7.1-7.516 17.394-8.812 23.538-8.826 1.457-.004 2.643-1.201 2.643-2.67z" fill="#79BE4F"/><path d="M71.124 9.233H69.21v33.47c0 3.75-3.02 6.806-6.731 6.815-5.211.012-13.804 1.043-19.89 6.869 10.525-2.607 21.62-.912 27.944.545a2.612 2.612 0 0 0 2.238-.516c.63-.508.992-1.269.992-2.085V11.902c0-1.472-1.184-2.67-2.64-2.67zM4.553 42.704V9.233H2.639C1.184 9.233 0 10.43 0 11.902V54.33c0 .817.362 1.577.992 2.085a2.61 2.61 0 0 0 2.238.516c6.323-1.457 17.419-3.151 27.943-.545-6.085-5.825-14.678-6.856-19.89-6.868-3.71-.01-6.73-3.066-6.73-6.814z" fill="#79BE4F"/></g></svg>