<svg width="10" height="8" xmlns="http://www.w3.org/2000/svg"><g fill="none"><path d="M.96 2.466l1.144.81c.636.448 1.123.794 1.462 1.036l.237.174a5.771 5.771 0 0 0 .592.4c.113.068.22.12.32.154a.87.87 0 0 0 .28.05h.011a.87.87 0 0 0 .279-.05c.1-.034.207-.086.32-.154a5.875 5.875 0 0 0 .592-.4c.12-.09.2-.147.237-.174l2.612-1.846c.271-.193.498-.426.68-.7A1.52 1.52 0 0 0 10 .91a.879.879 0 0 0-.265-.642A.855.855 0 0 0 9.107 0H.893C.606 0 .386.098.232.295.077.492 0 .74 0 1.034c0 .239.102.497.307.776.204.278.422.497.653.656z" fill="#79BE4F"/><path d="M9.442 3.074c-1.22.84-2.147 1.494-2.779 1.96a13.16 13.16 0 0 1-.516.372c-.132.09-.308.18-.528.273-.219.093-.424.14-.613.14h-.012c-.19 0-.394-.047-.613-.14a3.166 3.166 0 0 1-.528-.273 13.21 13.21 0 0 1-.516-.372 111.734 111.734 0 0 0-2.773-1.96A2.972 2.972 0 0 1 0 2.58v4.51c0 .25.087.465.262.643A.852.852 0 0 0 .892 8h8.215a.852.852 0 0 0 .63-.267A.883.883 0 0 0 10 7.09V2.58c-.16.181-.346.346-.558.494z" fill="#79BE4F"/></g></svg>