<svg width="10" height="18" xmlns="http://www.w3.org/2000/svg"><g fill="none"><path d="M4.18 12.974c-1.29-.137-2.455-.462-3.451-1.257-.124-.1-.252-.195-.365-.305-.436-.428-.48-.918-.135-1.423.296-.432.791-.547 1.307-.3.1.049.194.109.285.173 1.858 1.303 4.41 1.34 6.274.059.184-.145.382-.262.61-.323a.95.95 0 0 1 1.1.448c.272.454.269.897-.067 1.25a5.057 5.057 0 0 1-1.825 1.203c-.652.258-1.365.387-2.071.474.106.118.157.176.223.245.96.983 1.922 1.963 2.878 2.95.326.335.394.752.214 1.143-.196.427-.634.708-1.065.678-.272-.019-.485-.157-.674-.352-.724-.743-1.46-1.473-2.17-2.23-.206-.22-.305-.179-.487.013a146.68 146.68 0 0 1-2.213 2.267c-.334.336-.731.397-1.119.205-.412-.204-.674-.633-.654-1.065.014-.292.155-.514.35-.714.95-.968 1.896-1.938 2.843-2.906.063-.065.121-.133.212-.233z" fill="#5FAB30"/><path d="M4.963 10C2.227 9.99-.016 7.726 0 4.989A5.011 5.011 0 0 1 5.023 0C7.792.007 10.013 2.27 10 5.065 9.986 7.795 7.727 10.009 4.963 10zM7.45 4.996a2.437 2.437 0 0 0-2.446-2.442 2.44 2.44 0 0 0-2.452 2.47 2.437 2.437 0 0 0 2.464 2.424A2.432 2.432 0 0 0 7.45 4.996z" fill="#fff"/></g></svg>