<svg width="40" height="40" xmlns="http://www.w3.org/2000/svg"><g fill="none"><path d="M.999 37.267L0 39.892l2.633-.996-1.634-1.63zM.787 1.278c.887 1.399 2.239 3.391 4.15 5.887l1.754-1.75C4.186 3.504 2.188 2.158.787 1.277zM28.233 27.621l2.025 2.02.815-.813a228.31 228.31 0 0 0-4.605-5.113l-1.203 1.2-1.979 1.974c1.66 1.535 3.38 3.076 5.126 4.594l.816-.814-2.015-2.01a.733.733 0 0 1-.005-1.032.72.72 0 0 1 1.025-.006zM39.64 6.79L33.196.363a1.244 1.244 0 0 0-1.755 0l-3.214 3.206 8.188 8.169 3.224-3.217a1.215 1.215 0 0 0 0-1.73zM30.27 13.792L18.205 25.83a.723.723 0 0 1-1.025-.006.734.734 0 0 1 .005-1.032L29.24 12.765l-5.115-5.103-6.33 6.315-4.283 4.272-.001.001-8.219 8.198 5.116 5.103 4.217-4.206a.72.72 0 0 1 1.024.005.734.734 0 0 1-.005 1.032l-4.206 4.197 2.043 2.038L32.312 15.83l-2.042-2.039zM35.898 36.299a.72.72 0 0 1 1.024-.007l2.675 2.658c-.47-1.457-1.446-3.522-3.48-5.82-1.415-1.6-2.778-2.685-4.057-3.232l-2.569 2.563c.552 1.305 1.629 2.669 3.207 4.06 2.329 2.05 4.422 3.018 5.891 3.479l-2.684-2.67a.734.734 0 0 1-.007-1.031zM12.344 10.004l-2.805 2.798a150.36 150.36 0 0 0 3.482 3.882l3.215-3.207a149.578 149.578 0 0 0-3.892-3.473zM10.908 8.788a130.496 130.496 0 0 0-1.82-1.495l-.452-.362c-.265-.211-.528-.42-.783-.62L5.836 8.321c.264.336.54.68.822 1.032l.084.104c.253.314.516.635.785.961.176.213.355.426.534.64.176.211.347.42.53.634l2.641-2.635c-.11-.093-.215-.18-.324-.27zM27.197 4.596l-2.042 2.038 8.188 8.17 2.043-2.04-8.19-8.168zM4.595 27.806l-3.03 7.97 2.56 2.555 7.99-3.023-7.52-7.502z" fill="#79BE4F"/></g></svg>