<svg width="12" height="10" xmlns="http://www.w3.org/2000/svg"><path d="M11.728 1.154a4.498 4.498 0 0 1-.58.215c.234-.27.413-.587.522-.935a.2.2 0 0 0-.064-.214.19.19 0 0 0-.22-.015 4.52 4.52 0 0 1-1.35.543A2.565 2.565 0 0 0 8.235 0c-1.42 0-2.576 1.176-2.576 2.622 0 .114.007.227.02.339A6.562 6.562 0 0 1 1.153.516a.192.192 0 0 0-.317.026 2.657 2.657 0 0 0-.35 1.318c0 .632.223 1.231.614 1.7a2.163 2.163 0 0 1-.345-.157.19.19 0 0 0-.19.001.198.198 0 0 0-.097.167v.035a2.64 2.64 0 0 0 1.26 2.255 2.184 2.184 0 0 1-.195-.03.192.192 0 0 0-.182.064.2.2 0 0 0-.04.19 2.593 2.593 0 0 0 1.888 1.758 4.498 4.498 0 0 1-2.982.675.194.194 0 0 0-.205.129.199.199 0 0 0 .078.232A6.859 6.859 0 0 0 3.846 10c2.622 0 4.263-1.259 5.178-2.315a7.412 7.412 0 0 0 1.79-4.999 5.06 5.06 0 0 0 1.153-1.242.2.2 0 0 0-.012-.237.191.191 0 0 0-.227-.053z" fill="#5FAB30"/></svg>