<svg width="18" height="10" xmlns="http://www.w3.org/2000/svg"><path d="M15.492 6.358c.597.573 1.227 1.111 1.762 1.741.237.28.46.569.632.894.243.462.023.97-.399.998l-2.622-.002c-.676.055-1.216-.212-1.67-.666-.363-.363-.699-.75-1.048-1.124a2.468 2.468 0 0 0-.472-.412c-.358-.228-.669-.159-.873.208-.208.373-.256.786-.276 1.201-.028.606-.215.766-.835.793-1.326.062-2.584-.135-3.753-.792-1.03-.578-1.829-1.395-2.524-2.32C2.06 5.076 1.023 3.097.09 1.062-.12.604.035.358.55.35 1.405.333 2.26.334 3.117.348c.348.005.578.2.712.523a15.534 15.534 0 0 0 1.74 3.166c.19.262.383.524.657.709.304.204.536.136.68-.196.09-.211.13-.438.15-.664.068-.777.077-1.553-.042-2.327-.073-.483-.35-.796-.841-.887C5.921.625 5.958.533 6.08.393 6.29.151 6.49 0 6.885 0h2.963c.467.09.57.296.634.757l.003 3.232c-.005.178.09.708.418.826.262.084.435-.122.592-.285.71-.74 1.216-1.613 1.668-2.518.201-.398.374-.81.541-1.224.124-.306.319-.457.67-.45l2.852.002c.085 0 .17.002.252.015.481.08.613.284.464.745-.234.722-.689 1.325-1.134 1.93-.475.646-.984 1.27-1.456 1.92-.433.594-.399.893.14 1.408z" fill="#fff"/></svg>